<svg xmlns="http://www.w3.org/2000/svg" viewBox="0 0 512 512">
  <defs>
    <linearGradient id="rv-bg" x1="0%" y1="0%" x2="100%" y2="100%">
      <stop offset="0%" stop-color="#2563EB"/>
      <stop offset="100%" stop-color="#1D4ED8"/>
    </linearGradient>
    <linearGradient id="rv-shield" x1="0%" y1="0%" x2="0%" y2="100%">
      <stop offset="0%" stop-color="#FFF"/>
      <stop offset="100%" stop-color="#EFF6FF"/>
    </linearGradient>
  </defs>
  <circle cx="256" cy="256" r="232" fill="url(#rv-bg)"/>
  <path d="M256 56a200 200 0 1 1-136 284" fill="none" stroke="#F59E0B" stroke-width="18" stroke-linecap="round"/>
  <path d="M120 340l-24 20 34 12z" fill="#F59E0B"/>
  <path d="M256 108l96 40v104c0 70-96 144-96 144s-96-74-96-144V148z" fill="url(#rv-shield)" stroke="#2563EB" stroke-width="6" stroke-linejoin="round"/>
  <rect x="196" y="188" width="120" height="32" rx="6" fill="#2563EB"/>
  <rect x="196" y="212" width="120" height="96" rx="6" fill="#FFF" stroke="#2563EB" stroke-width="4"/>
  <rect x="218" y="178" width="8" height="20" rx="3" fill="#1D4ED8"/>
  <rect x="256" y="178" width="8" height="20" rx="3" fill="#1D4ED8"/>
  <rect x="294" y="178" width="8" height="20" rx="3" fill="#1D4ED8"/>
  <circle cx="218" cy="244" r="7" fill="#2563EB" opacity=".35"/>
  <circle cx="256" cy="244" r="7" fill="#2563EB" opacity=".35"/>
  <circle cx="294" cy="244" r="7" fill="#2563EB" opacity=".35"/>
  <circle cx="218" cy="278" r="7" fill="#2563EB" opacity=".35"/>
  <circle cx="256" cy="278" r="7" fill="#22C55E"/>
  <circle cx="294" cy="278" r="7" fill="#2563EB" opacity=".35"/>
  <circle cx="340" cy="340" r="44" fill="#22C55E"/>
  <path d="M318 340l16 16 30-34" fill="none" stroke="#FFF" stroke-width="10" stroke-linecap="round" stroke-linejoin="round"/>
</svg>
